# xmcd
#
# Track frame offsets: 
#        150
#        25102
#        49278
#        72748
#        93571
#        109180
#        135738
#        163941
#        187506
#        208265
#        232186
#        259901
#        281386
#        305230
#
# Disc length: 4369 seconds
#
# Revision: 0
# Processed by: cddbd v1.5.2PL0 Copyright (c) Steve Scherf et al.
# Submitted via: ExactAudioCopy v0.99pb5
#
DISCID=d8110f0e
DTITLE=Inka - Vision - Best of Inka Vision
DYEAR=1900
DGENRE=Indie
TTITLE0=Amanecer andino
TTITLE1=Huamany vision
TTITLE2=Ruminiahui
TTITLE3=Siwar
TTITLE4=Espiritual
TTITLE5=Chirapag
TTITLE6=Tinko indian
TTITLE7=Ly.O.Lay
TTITLE8=Drums Dance
TTITLE9=Shaman
TTITLE10=Amanecer
TTITLE11=Ali kausaiman
TTITLE12=Ishkay chunga
TTITLE13=Clouds of sunset
EXTD=
EXTT0=
EXTT1=
EXTT2=
EXTT3=
EXTT4=
EXTT5=
EXTT6=
EXTT7=
EXTT8=
EXTT9=
EXTT10=
EXTT11=
EXTT12=
EXTT13=
PLAYORDER=
